# xmcd CD database file
#
# Track frame offsets:
#	150
#	13715
#	25680
#	38980
#	54925
#	67970
#	81427
#	94090
#	104602
#	118832
#	132810
#	146577
#	161767
#	174000
#	187175
#	204130
#	218615
#
# Disc length: 3151 seconds
#
# Revision: 1
# Processed by: cddbd v1.5.2PL0 Copyright (c) Steve Scherf et al.
# Submitted via: CDex 1.70beta2
#
DISCID=e40c4d11
DTITLE=黛ジュン - best collection
DYEAR=1992
DGENRE=歌謡曲
TTITLE0=天使の誘惑
TTITLE1=愛の奇跡
TTITLE2=雲にのりたい
TTITLE3=夕月
TTITLE4=愛がほしいの
TTITLE5=不思議な太陽
TTITLE6=つみな人
TTITLE7=恋のハレルヤ
TTITLE8=霧のかなたに
TTITLE9=誰がために祈る
TTITLE10=乙女の祈り
TTITLE11=自由の女神
TTITLE12=土曜の夜何かが起きる
TTITLE13=時は流れる
TTITLE14=悲しみよ今日は
TTITLE15=淋しくて淋しくて
TTITLE16=ブラック・ルーム
EXTD=YEAR: 1992
EXTT0=
EXTT1=
EXTT2=
EXTT3=
EXTT4=
EXTT5=
EXTT6=
EXTT7=
EXTT8=
EXTT9=
EXTT10=
EXTT11=
EXTT12=
EXTT13=
EXTT14=
EXTT15=
EXTT16=
PLAYORDER=
